# Blender v2.93.0 OBJ File: 'arco ufsm.blend'
# www.blender.org
mtllib arco ufsm.mtl
o Plane
v -11.818648 -0.003183 2.053318
v 13.101849 0.344739 2.053318
v -11.818648 -0.003183 0.186545
v 13.101849 0.344739 0.186545
v -10.937560 0.362398 2.053318
v -10.058382 0.756315 2.053318
v -9.177388 1.171135 2.053318
v -8.294666 1.597850 2.053318
v -7.410253 2.027401 2.053318
v -6.524146 2.450722 2.053318
v -5.636267 2.858743 2.053318
v -4.746535 3.242364 2.053318
v -3.854804 3.592467 2.053318
v -2.960890 3.899879 2.053318
v -2.064639 4.155376 2.053318
v -1.165898 4.349604 2.053318
v -0.264623 4.473140 2.053318
v 0.633803 4.516377 2.053318
v 1.528076 4.515294 2.053318
v 2.426473 4.469992 2.053318
v 3.327704 4.344526 2.053318
v 4.226394 4.148503 2.053318
v 5.122607 3.891384 2.053318
v 6.016470 3.582485 2.053318
v 6.908166 3.231058 2.053318
v 7.797868 2.846262 2.053318
v 8.685702 2.437213 2.053318
v 9.571788 2.013014 2.053318
v 10.456172 1.582736 2.053318
v 11.338865 1.155457 2.053318
v 12.219836 0.740200 2.053318
v 12.219835 0.740200 0.186545
v 11.338864 1.155457 0.186545
v 10.456171 1.582736 0.186545
v 9.571786 2.013014 0.186545
v 8.685700 2.437213 0.186545
v 7.797866 2.846262 0.186545
v 6.908164 3.231059 0.186545
v 6.016468 3.582485 0.186545
v 5.122606 3.891384 0.186545
v 4.226392 4.148503 0.186545
v 3.327703 4.344527 0.186545
v 2.426472 4.469992 0.186545
v 1.528075 4.515294 0.186545
v 0.633802 4.516377 0.186545
v -0.264624 4.473140 0.186545
v -1.165899 4.349604 0.186545
v -2.064640 4.155376 0.186545
v -2.960890 3.899879 0.186545
v -3.854804 3.592467 0.186545
v -4.746536 3.242364 0.186545
v -5.636268 2.858743 0.186545
v -6.524147 2.450722 0.186545
v -7.410253 2.027401 0.186545
v -8.294667 1.597850 0.186545
v -9.177389 1.171135 0.186545
v -10.058383 0.756315 0.186545
v -10.937561 0.362399 0.186545
v -11.736520 -0.260092 2.053318
v 13.013955 0.090317 2.053318
v -11.736520 -0.260092 0.186545
v 13.013955 0.090317 0.186545
v -10.852574 0.106700 2.053318
v -9.968628 0.502736 2.053318
v -9.084682 0.918941 2.053318
v -8.200738 1.346241 2.053318
v -7.316792 1.775566 2.053318
v -6.432847 2.197861 2.053318
v -5.548901 2.604087 2.053318
v -4.664955 2.985230 2.053318
v -3.781010 3.332296 2.053318
v -2.897064 3.636312 2.053318
v -2.013119 3.888330 2.053318
v -1.129174 4.079411 2.053318
v -0.245228 4.200619 2.053318
v 0.638718 4.243013 2.053318
v 1.522663 4.241947 2.053318
v 2.406609 4.197512 2.053318
v 3.290554 4.074399 2.053318
v 4.174500 3.881556 2.053318
v 5.058445 3.627917 2.053318
v 5.942390 3.322422 2.053318
v 6.826337 2.974024 2.053318
v 7.710282 2.591698 2.053318
v 8.594228 2.184435 2.053318
v 9.478174 1.761254 2.053318
v 10.362119 1.331193 2.053318
v 11.246064 0.903304 2.053318
v 12.130010 0.486654 2.053318
v 12.130009 0.486654 0.186545
v 11.246063 0.903304 0.186545
v 10.362118 1.331192 0.186545
v 9.478172 1.761254 0.186545
v 8.594226 2.184435 0.186545
v 7.710280 2.591698 0.186545
v 6.826335 2.974025 0.186545
v 5.942389 3.322422 0.186545
v 5.058444 3.627917 0.186545
v 4.174499 3.881556 0.186545
v 3.290553 4.074401 0.186545
v 2.406608 4.197512 0.186545
v 1.522662 4.241947 0.186545
v 0.638717 4.243013 0.186545
v -0.245229 4.200619 0.186545
v -1.129174 4.079411 0.186545
v -2.013120 3.888330 0.186545
v -2.897065 3.636312 0.186545
v -3.781011 3.332296 0.186545
v -4.664956 2.985230 0.186545
v -5.548902 2.604087 0.186545
v -6.432848 2.197861 0.186545
v -7.316792 1.775566 0.186545
v -8.200738 1.346241 0.186545
v -9.084683 0.918941 0.186545
v -9.968629 0.502736 0.186545
v -10.852575 0.106700 0.186545
v 13.829329 0.093421 2.053318
v 13.829329 0.093421 0.186545
v 13.741435 -0.161001 2.053318
v 13.741435 -0.161001 0.186545
vt 0.964286 0.000000
vt 1.000000 0.000000
vt 1.000000 1.000000
vt 0.964286 1.000000
vt 0.000000 0.000000
vt 0.035714 0.000000
vt 0.035714 1.000000
vt 0.000000 1.000000
vt 0.071429 0.000000
vt 0.071429 1.000000
vt 0.107143 0.000000
vt 0.107143 1.000000
vt 0.142857 0.000000
vt 0.142857 1.000000
vt 0.178571 0.000000
vt 0.178571 1.000000
vt 0.214286 0.000000
vt 0.214286 1.000000
vt 0.250000 0.000000
vt 0.250000 1.000000
vt 0.285714 0.000000
vt 0.285714 1.000000
vt 0.321429 0.000000
vt 0.321429 1.000000
vt 0.357143 0.000000
vt 0.357143 1.000000
vt 0.392857 0.000000
vt 0.392857 1.000000
vt 0.428571 0.000000
vt 0.428571 1.000000
vt 0.464286 0.000000
vt 0.464286 1.000000
vt 0.500000 0.000000
vt 0.500000 1.000000
vt 0.535714 0.000000
vt 0.535714 1.000000
vt 0.571429 0.000000
vt 0.571429 1.000000
vt 0.607143 0.000000
vt 0.607143 1.000000
vt 0.642857 0.000000
vt 0.642857 1.000000
vt 0.678571 0.000000
vt 0.678571 1.000000
vt 0.714286 0.000000
vt 0.714286 1.000000
vt 0.750000 0.000000
vt 0.750000 1.000000
vt 0.785714 0.000000
vt 0.785714 1.000000
vt 0.821429 0.000000
vt 0.821428 1.000000
vt 0.857143 0.000000
vt 0.857143 1.000000
vt 0.892857 0.000000
vt 0.892857 1.000000
vt 0.928571 0.000000
vt 0.928571 1.000000
vt 0.964286 0.000000
vt 0.964286 1.000000
vt 1.000000 1.000000
vt 1.000000 0.000000
vt 0.000000 0.000000
vt 0.000000 1.000000
vt 0.035714 1.000000
vt 0.035714 0.000000
vt 0.071429 1.000000
vt 0.071429 0.000000
vt 0.107143 1.000000
vt 0.107143 0.000000
vt 0.142857 1.000000
vt 0.142857 0.000000
vt 0.178571 1.000000
vt 0.178571 0.000000
vt 0.214286 1.000000
vt 0.214286 0.000000
vt 0.250000 1.000000
vt 0.250000 0.000000
vt 0.285714 1.000000
vt 0.285714 0.000000
vt 0.321429 1.000000
vt 0.321429 0.000000
vt 0.357143 1.000000
vt 0.357143 0.000000
vt 0.392857 1.000000
vt 0.392857 0.000000
vt 0.428571 1.000000
vt 0.428571 0.000000
vt 0.464286 1.000000
vt 0.464286 0.000000
vt 0.500000 1.000000
vt 0.500000 0.000000
vt 0.535714 1.000000
vt 0.535714 0.000000
vt 0.571429 1.000000
vt 0.571429 0.000000
vt 0.607143 1.000000
vt 0.607143 0.000000
vt 0.642857 1.000000
vt 0.642857 0.000000
vt 0.678571 1.000000
vt 0.678571 0.000000
vt 0.714286 1.000000
vt 0.714286 0.000000
vt 0.750000 1.000000
vt 0.750000 0.000000
vt 0.785714 1.000000
vt 0.785714 0.000000
vt 0.821428 1.000000
vt 0.821429 0.000000
vt 0.857143 1.000000
vt 0.857143 0.000000
vt 0.892857 1.000000
vt 0.892857 0.000000
vt 0.928571 1.000000
vt 0.928571 0.000000
vt 1.000000 1.000000
vt 1.000000 0.000000
vt 1.000000 1.000000
vt 1.000000 0.000000
vn 0.4091 0.9125 -0.0000
vn -0.3832 0.9236 0.0000
vn -0.4089 0.9126 0.0000
vn -0.4260 0.9047 0.0000
vn -0.4352 0.9003 0.0000
vn -0.4369 0.8995 0.0000
vn -0.4311 0.9023 0.0000
vn -0.4176 0.9086 0.0000
vn -0.3959 0.9183 0.0000
vn -0.3655 0.9308 0.0000
vn -0.3252 0.9456 0.0000
vn -0.2742 0.9617 0.0000
vn -0.2112 0.9774 0.0000
vn -0.1358 0.9907 0.0000
vn -0.0481 0.9988 0.0000
vn 0.0012 1.0000 0.0000
vn 0.0504 0.9987 0.0000
vn 0.1379 0.9904 -0.0000
vn 0.2131 0.9770 0.0000
vn 0.2758 0.9612 0.0000
vn 0.3266 0.9452 -0.0000
vn 0.3667 0.9304 -0.0000
vn 0.3970 0.9178 -0.0000
vn 0.4184 0.9082 -0.0000
vn 0.4318 0.9020 -0.0000
vn 0.4375 0.8992 -0.0000
vn 0.4357 0.9001 -0.0000
vn 0.4264 0.9045 -0.0000
vn -0.4091 -0.9125 0.0000
vn 0.3833 -0.9236 -0.0000
vn 0.4089 -0.9126 -0.0000
vn 0.4260 -0.9047 -0.0000
vn 0.4352 -0.9003 -0.0000
vn 0.4369 -0.8995 0.0000
vn 0.4311 -0.9023 -0.0000
vn 0.4176 -0.9086 -0.0000
vn 0.3959 -0.9183 -0.0000
vn 0.3655 -0.9308 -0.0000
vn 0.3252 -0.9456 -0.0000
vn 0.2742 -0.9617 -0.0000
vn 0.2113 -0.9774 -0.0000
vn 0.1359 -0.9907 -0.0000
vn 0.0479 -0.9989 0.0000
vn -0.0012 -1.0000 0.0000
vn -0.0502 -0.9987 0.0000
vn -0.1379 -0.9904 -0.0000
vn -0.2131 -0.9770 -0.0000
vn -0.2758 -0.9612 0.0000
vn -0.3266 -0.9451 0.0000
vn -0.3667 -0.9303 0.0000
vn -0.3970 -0.9178 0.0000
vn -0.4185 -0.9082 0.0000
vn -0.4318 -0.9020 0.0000
vn -0.4375 -0.8992 0.0000
vn -0.4357 -0.9001 0.0000
vn -0.4264 -0.9046 0.0000
vn -0.9525 -0.3045 0.0000
vn -0.0000 0.0000 1.0000
vn -0.3265 -0.9452 0.0000
vn 0.0000 0.0000 -1.0000
vn 0.9452 -0.3265 0.0000
vn 0.3265 0.9452 -0.0000
usemtl None
s off
f 31/1/1 2/2/1 4/3/1 32/4/1
f 1/5/2 5/6/2 58/7/2 3/8/2
f 5/6/3 6/9/3 57/10/3 58/7/3
f 6/9/4 7/11/4 56/12/4 57/10/4
f 7/11/5 8/13/5 55/14/5 56/12/5
f 8/13/6 9/15/6 54/16/6 55/14/6
f 9/15/7 10/17/7 53/18/7 54/16/7
f 10/17/8 11/19/8 52/20/8 53/18/8
f 11/19/9 12/21/9 51/22/9 52/20/9
f 12/21/10 13/23/10 50/24/10 51/22/10
f 13/23/11 14/25/11 49/26/11 50/24/11
f 14/25/12 15/27/12 48/28/12 49/26/12
f 15/27/13 16/29/13 47/30/13 48/28/13
f 16/29/14 17/31/14 46/32/14 47/30/14
f 17/31/15 18/33/15 45/34/15 46/32/15
f 18/33/16 19/35/16 44/36/16 45/34/16
f 19/35/17 20/37/17 43/38/17 44/36/17
f 20/37/18 21/39/18 42/40/18 43/38/18
f 21/39/19 22/41/19 41/42/19 42/40/19
f 22/41/20 23/43/20 40/44/20 41/42/20
f 23/43/21 24/45/21 39/46/21 40/44/21
f 24/45/22 25/47/22 38/48/22 39/46/22
f 25/47/23 26/49/23 37/50/23 38/48/23
f 26/49/24 27/51/24 36/52/24 37/50/24
f 27/51/25 28/53/25 35/54/25 36/52/25
f 28/53/26 29/55/26 34/56/26 35/54/26
f 29/55/27 30/57/27 33/58/27 34/56/27
f 30/57/28 31/1/28 32/4/28 33/58/28
f 89/59/29 90/60/29 62/61/29 60/62/29
f 59/63/30 61/64/30 116/65/30 63/66/30
f 63/66/31 116/65/31 115/67/31 64/68/31
f 64/68/32 115/67/32 114/69/32 65/70/32
f 65/70/33 114/69/33 113/71/33 66/72/33
f 66/72/34 113/71/34 112/73/34 67/74/34
f 67/74/35 112/73/35 111/75/35 68/76/35
f 68/76/36 111/75/36 110/77/36 69/78/36
f 69/78/37 110/77/37 109/79/37 70/80/37
f 70/80/38 109/79/38 108/81/38 71/82/38
f 71/82/39 108/81/39 107/83/39 72/84/39
f 72/84/40 107/83/40 106/85/40 73/86/40
f 73/86/41 106/85/41 105/87/41 74/88/41
f 74/88/42 105/87/42 104/89/42 75/90/42
f 75/90/43 104/89/43 103/91/43 76/92/43
f 76/92/44 103/91/44 102/93/44 77/94/44
f 77/94/45 102/93/45 101/95/45 78/96/45
f 78/96/46 101/95/46 100/97/46 79/98/46
f 79/98/47 100/97/47 99/99/47 80/100/47
f 80/100/48 99/99/48 98/101/48 81/102/48
f 81/102/49 98/101/49 97/103/49 82/104/49
f 82/104/50 97/103/50 96/105/50 83/106/50
f 83/106/51 96/105/51 95/107/51 84/108/51
f 84/108/52 95/107/52 94/109/52 85/110/52
f 85/110/53 94/109/53 93/111/53 86/112/53
f 86/112/54 93/111/54 92/113/54 87/114/54
f 87/114/55 92/113/55 91/115/55 88/116/55
f 88/116/56 91/115/56 90/60/56 89/59/56
f 1/5/57 3/8/57 61/64/57 59/63/57
f 2/2/58 31/1/58 89/59/58 60/62/58
f 60/62/59 62/61/59 120/117/59 119/118/59
f 3/8/60 58/7/60 116/65/60 61/64/60
f 5/6/58 1/5/58 59/63/58 63/66/58
f 6/9/58 5/6/58 63/66/58 64/68/58
f 7/11/58 6/9/58 64/68/58 65/70/58
f 8/13/58 7/11/58 65/70/58 66/72/58
f 9/15/58 8/13/58 66/72/58 67/74/58
f 10/17/58 9/15/58 67/74/58 68/76/58
f 11/19/58 10/17/58 68/76/58 69/78/58
f 12/21/58 11/19/58 69/78/58 70/80/58
f 13/23/58 12/21/58 70/80/58 71/82/58
f 14/25/58 13/23/58 71/82/58 72/84/58
f 15/27/58 14/25/58 72/84/58 73/86/58
f 16/29/58 15/27/58 73/86/58 74/88/58
f 17/31/58 16/29/58 74/88/58 75/90/58
f 18/33/58 17/31/58 75/90/58 76/92/58
f 19/35/58 18/33/58 76/92/58 77/94/58
f 20/37/58 19/35/58 77/94/58 78/96/58
f 21/39/58 20/37/58 78/96/58 79/98/58
f 22/41/58 21/39/58 79/98/58 80/100/58
f 23/43/58 22/41/58 80/100/58 81/102/58
f 24/45/58 23/43/58 81/102/58 82/104/58
f 25/47/58 24/45/58 82/104/58 83/106/58
f 26/49/58 25/47/58 83/106/58 84/108/58
f 27/51/58 26/49/58 84/108/58 85/110/58
f 28/53/58 27/51/58 85/110/58 86/112/58
f 29/55/58 28/53/58 86/112/58 87/114/58
f 30/57/58 29/55/58 87/114/58 88/116/58
f 31/1/58 30/57/58 88/116/58 89/59/58
f 32/4/60 4/3/60 62/61/60 90/60/60
f 33/58/60 32/4/60 90/60/60 91/115/60
f 34/56/60 33/58/60 91/115/60 92/113/60
f 35/54/60 34/56/60 92/113/60 93/111/60
f 36/52/60 35/54/60 93/111/60 94/109/60
f 37/50/60 36/52/60 94/109/60 95/107/60
f 38/48/60 37/50/60 95/107/60 96/105/60
f 39/46/60 38/48/60 96/105/60 97/103/60
f 40/44/60 39/46/60 97/103/60 98/101/60
f 41/42/60 40/44/60 98/101/60 99/99/60
f 42/40/60 41/42/60 99/99/60 100/97/60
f 43/38/60 42/40/60 100/97/60 101/95/60
f 44/36/60 43/38/60 101/95/60 102/93/60
f 45/34/60 44/36/60 102/93/60 103/91/60
f 46/32/60 45/34/60 103/91/60 104/89/60
f 47/30/60 46/32/60 104/89/60 105/87/60
f 48/28/60 47/30/60 105/87/60 106/85/60
f 49/26/60 48/28/60 106/85/60 107/83/60
f 50/24/60 49/26/60 107/83/60 108/81/60
f 51/22/60 50/24/60 108/81/60 109/79/60
f 52/20/60 51/22/60 109/79/60 110/77/60
f 53/18/60 52/20/60 110/77/60 111/75/60
f 54/16/60 53/18/60 111/75/60 112/73/60
f 55/14/60 54/16/60 112/73/60 113/71/60
f 56/12/60 55/14/60 113/71/60 114/69/60
f 57/10/60 56/12/60 114/69/60 115/67/60
f 58/7/60 57/10/60 115/67/60 116/65/60
f 118/119/61 117/120/61 119/118/61 120/117/61
f 62/61/60 4/3/60 118/119/60 120/117/60
f 2/2/58 60/62/58 119/118/58 117/120/58
f 4/3/62 2/2/62 117/120/62 118/119/62
